<svg xmlns="http://www.w3.org/2000/svg" viewBox="0 0 467.28 186.11"><defs><style>.cls-1{fill:#fff;}</style></defs><g id="Layer_2" data-name="Layer 2"><g id="Layer_1-2" data-name="Layer 1"><path class="cls-1" d="M102.8,57.53c-22.44-13.77-55.86-12-73.87,10.7-.37.47-.74,1.12-1.7.4,0-21.18-.08-42.49.08-63.8,0-3.61-.73-5-4.61-4.81C16.39.36,10,.28,3.72.08.85,0,0,.89,0,3.72c.17,6,0,12,0,18Q.07,99.64,0,177.58c0,3.7.56,5.26,4.78,5a134.8,134.8,0,0,1,19,0c3.26.23,3.58-1,3.51-3.54-.13-4.41,0-8.83,0-13.14,1.62-.3,2,.67,2.42,1.22,17.8,22.9,54,23.33,75.65,8.51C146,147.8,144.8,83.3,102.8,57.53ZM66.77,159c-23-.22-39.69-18.16-39.51-42.47.18-23.79,17.42-40.8,41.14-40.6,22.6.2,39.1,17.9,38.94,41.76C107.18,141.83,90.09,159.22,66.77,159Z"/><path class="cls-1" d="M403,68.82c-14.47-16.16-33.14-21.72-54.16-19.54-17.55,1.82-32.4,9.37-43.69,23.31C292.66,88,288.49,105.86,290.36,125c2.36,24.14,13.78,42.89,36.11,53.74,16.67,8.11,34.25,8.88,52.11,4.64,14-3.31,25.05-11.15,34-22.26,2-2.47,2.11-4.15-1-5.86-5.67-3.15-11.26-6.46-16.71-10-2.15-1.38-3.15-.66-4.49,1-9,10.72-20.85,14.38-34.31,13.67-17.24-.9-30.76-10.52-35.74-25.08-1.87-5.43-1.8-5.55,3.81-5.55H369.6c15.49,0,31-.07,46.47.05,2.83,0,4.22-.59,4.51-3.68C422.64,104.25,417.46,85,403,68.82Zm-14.15,37.54c-10.82-.2-21.65-.07-32.47-.08-11.16,0-22.32-.12-33.47.07-3.62.06-4.23-1.17-3.33-4.39,4.75-17,19.35-27.7,37.74-27.52,17.15.18,30.27,10.55,35,27.33C393.28,105.36,392.64,106.43,388.83,106.36Z"/><path class="cls-1" d="M278.16,107.45c-2.71-19.91-11.47-36.38-28.13-48-34.4-23.93-95.8-8.22-101.7,49.39-3,29.34,6.55,53.75,33.5,68.57,18.87,10.37,39.15,10.88,59.49,4.46,11.89-3.75,21.47-11.08,29.05-21,1.69-2.22,2.25-3.69-.79-5.37-5.68-3.13-11.19-6.59-16.67-10.05-1.95-1.23-3.21-1-4.65.75-6.84,8.24-15.82,12.53-26.34,13.57-18.39,1.81-37.7-5.9-44.07-25.7-1.25-3.87-.46-4.88,3.57-4.83,15.32.18,30.64.07,46,.07,15.48,0,31-.06,46.45.06,3,0,4.25-.65,4.55-4A79.36,79.36,0,0,0,278.16,107.45Zm-32.8-1.16h-32c-10.83,0-21.66-.13-32.48.07-4,.08-4.41-1.47-3.44-4.8,4.83-16.55,18.68-26.9,36.47-27.11,17.46-.21,30.57,9.44,35.7,26.26C251.22,105.91,250.94,106.28,245.36,106.29Z"/><path class="cls-1" d="M467.14,20.06c0,11.58-7.91,20-18.88,20.08s-19.55-8.72-19.54-20.2A19.54,19.54,0,0,1,448.12.1C458.12,0,468.6,9.59,467.14,20.06Z"/></g></g></svg>