<svg xmlns="http://www.w3.org/2000/svg" viewBox="0 0 1440 320"><path fill="#ffffff" fill-opacity="1" d="M0,192L12,170.7C24,149,48,107,72,122.7C96,139,120,213,144,234.7C168,256,192,224,216,208C240,192,264,192,288,181.3C312,171,336,149,360,165.3C384,181,408,235,432,224C456,213,480,139,504,96C528,53,552,43,576,42.7C600,43,624,53,648,85.3C672,117,696,171,720,170.7C744,171,768,117,792,112C816,107,840,149,864,154.7C888,160,912,128,936,138.7C960,149,984,203,1008,229.3C1032,256,1056,256,1080,266.7C1104,277,1128,299,1152,277.3C1176,256,1200,192,1224,176C1248,160,1272,192,1296,181.3C1320,171,1344,117,1368,80C1392,43,1416,21,1428,10.7L1440,0L1440,320L1428,320C1416,320,1392,320,1368,320C1344,320,1320,320,1296,320C1272,320,1248,320,1224,320C1200,320,1176,320,1152,320C1128,320,1104,320,1080,320C1056,320,1032,320,1008,320C984,320,960,320,936,320C912,320,888,320,864,320C840,320,816,320,792,320C768,320,744,320,720,320C696,320,672,320,648,320C624,320,600,320,576,320C552,320,528,320,504,320C480,320,456,320,432,320C408,320,384,320,360,320C336,320,312,320,288,320C264,320,240,320,216,320C192,320,168,320,144,320C120,320,96,320,72,320C48,320,24,320,12,320L0,320Z"></path></svg>