<?xml version="1.0" standalone="no"?><svg xmlns="http://www.w3.org/2000/svg" viewBox="0 0 1440 320"><path fill="#ffffff" fill-opacity="1" d="M0,256L21.8,240C43.6,224,87,192,131,186.7C174.5,181,218,203,262,218.7C305.5,235,349,245,393,234.7C436.4,224,480,192,524,165.3C567.3,139,611,117,655,112C698.2,107,742,117,785,128C829.1,139,873,149,916,154.7C960,160,1004,160,1047,154.7C1090.9,149,1135,139,1178,128C1221.8,117,1265,107,1309,122.7C1352.7,139,1396,181,1418,202.7L1440,224L1440,320L1418.2,320C1396.4,320,1353,320,1309,320C1265.5,320,1222,320,1178,320C1134.5,320,1091,320,1047,320C1003.6,320,960,320,916,320C872.7,320,829,320,785,320C741.8,320,698,320,655,320C610.9,320,567,320,524,320C480,320,436,320,393,320C349.1,320,305,320,262,320C218.2,320,175,320,131,320C87.3,320,44,320,22,320L0,320Z"></path></svg>