<?xml version="1.0" standalone="no"?><svg xmlns="http://www.w3.org/2000/svg" viewBox="0 0 1440 320"><path fill="#20063b" fill-opacity="1" d="M0,288L14.1,240C28.2,192,56,96,85,64C112.9,32,141,64,169,64C197.6,64,226,32,254,37.3C282.4,43,311,85,339,101.3C367.1,117,395,107,424,117.3C451.8,128,480,160,508,192C536.5,224,565,256,593,256C621.2,256,649,224,678,229.3C705.9,235,734,277,762,272C790.6,267,819,213,847,160C875.3,107,904,53,932,42.7C960,32,988,64,1016,90.7C1044.7,117,1073,139,1101,149.3C1129.4,160,1158,160,1186,176C1214.1,192,1242,224,1271,213.3C1298.8,203,1327,149,1355,160C1383.5,171,1412,245,1426,282.7L1440,320L1440,0L1425.9,0C1411.8,0,1384,0,1355,0C1327.1,0,1299,0,1271,0C1242.4,0,1214,0,1186,0C1157.6,0,1129,0,1101,0C1072.9,0,1045,0,1016,0C988.2,0,960,0,932,0C903.5,0,875,0,847,0C818.8,0,791,0,762,0C734.1,0,706,0,678,0C649.4,0,621,0,593,0C564.7,0,536,0,508,0C480,0,452,0,424,0C395.3,0,367,0,339,0C310.6,0,282,0,254,0C225.9,0,198,0,169,0C141.2,0,113,0,85,0C56.5,0,28,0,14,0L0,0Z"></path></svg>