<svg width="1117" height="965" viewBox="0 0 1117 965" fill="none" xmlns="http://www.w3.org/2000/svg">
<g clip-path="url(#clip0_88_11)">
<path d="M689.776 231.088C771.736 273.434 883.748 269.336 965.708 314.414C1049.03 359.492 1103.67 453.746 1114.6 553.464C1124.16 654.548 1090.01 759.73 1025.81 840.324C962.976 919.552 872.82 974.192 779.932 963.264C688.41 953.702 596.888 878.572 528.588 834.86C461.654 792.514 419.308 780.22 346.91 778.854C275.878 777.488 176.16 787.05 109.226 750.168C42.2921 713.286 9.50804 629.96 2.67804 543.902C-5.51796 456.478 12.24 364.956 43.658 269.336C76.442 172.35 122.886 69.9 200.748 26.188C279.976 -17.524 391.988 -2.49801 473.948 49.41C555.908 101.318 607.816 188.742 689.776 231.088Z" fill="#ff5d30"/>
</g>
<defs>
<clipPath id="clip0_88_11">
<rect width="1117" height="965" fill="#ff5d30"/>
</clipPath>
</defs>
</svg>
