<svg width="1367" height="841" viewBox="0 0 1367 841" fill="none" xmlns="http://www.w3.org/2000/svg">
<g clip-path="url(#clip0_88_11)">
<path d="M844.45 201.115C944.888 238.054 1082.15 234.479 1182.59 273.8C1284.7 313.121 1351.66 395.338 1365.06 482.322C1376.77 570.496 1334.92 662.246 1256.25 732.547C1179.24 801.657 1068.76 849.319 954.932 839.787C842.776 831.446 730.62 765.911 646.921 727.781C564.896 690.843 513.003 680.119 424.283 678.927C337.236 677.736 215.036 686.077 133.012 653.905C50.9869 621.733 10.8116 549.048 2.44171 473.981C-7.60213 397.721 14.1595 317.887 52.6609 234.479C92.8362 149.879 149.751 60.5124 245.168 22.3827C342.258 -15.7469 479.524 -2.63984 579.962 42.6391C680.4 87.9181 744.011 164.177 844.45 201.115Z" fill="#ff5d30"/>
</g>
<defs>
<clipPath id="clip0_88_11">
<rect width="1367" height="841" fill="white"/>
</clipPath>
</defs>
</svg>
