<?xml version="1.0" standalone="no"?><svg xmlns="http://www.w3.org/2000/svg" viewBox="0 0 1440 320"><path fill="#000000" fill-opacity="1" d="M0,160L40,133.3C80,107,160,53,240,69.3C320,85,400,171,480,213.3C560,256,640,256,720,256C800,256,880,256,960,256C1040,256,1120,256,1200,218.7C1280,181,1360,107,1400,69.3L1440,32L1440,320L1400,320C1360,320,1280,320,1200,320C1120,320,1040,320,960,320C880,320,800,320,720,320C640,320,560,320,480,320C400,320,320,320,240,320C160,320,80,320,40,320L0,320Z"></path></svg>