<svg xmlns="http://www.w3.org/2000/svg" viewBox="0 0 64 64">
  <defs>
    <style>
      .a {
        fill: #ededed;
      }

      .b {
        fill: #ff5d30;
      }
    </style>
  </defs>
  <g>
    <circle class="a" cx="32" cy="32" r="32"/>
    <g>
      <path d="M43.5,20.7a1.8,1.8,0,0,1-.1.6l-.7,1.8L34.2,43.7l-6-13.5L21.9,43.7,12.4,20.1h8.8l4.5,12,6.1-13,5.7,13,4-9.4a10.4,10.4,0,0,1,.4-1l.2-1a.8.8,0,0,1,.8-.7C43.3,20,43.5,20.2,43.5,20.7Z"/>
      <path class="b" d="M37.9,27.2c.2-.4.5-1.2.9-2.3l.9-2.6,1.1-2.4A13.3,13.3,0,0,1,42,17.5a15,15,0,0,1,1.4-2,9.4,9.4,0,0,1,1.8-1.7,8.3,8.3,0,0,1,4.6-1.4c2.9,0,4.4,1.1,4.4,3.2a4.1,4.1,0,0,1-.7,2.2,2.1,2.1,0,0,1-1.8,1,1.7,1.7,0,0,1-1-.3.8.8,0,0,1-.4-.7,2.8,2.8,0,0,1,.6-1.3,2.5,2.5,0,0,0,.7-1.6,1.1,1.1,0,0,0-.6-1,1.7,1.7,0,0,0-1.2-.5,3.6,3.6,0,0,0-2.5,1.4A13.3,13.3,0,0,0,45,18.3a67.1,67.1,0,0,0-3.4,8.2.4.4,0,0,1-.1.3,1.4,1.4,0,0,1-.2.6c4.5,0,7-.2,7.6-.6a2.7,2.7,0,0,1-2.3,1.7,26.2,26.2,0,0,1-5.8.5l-1.3,3.6a103.1,103.1,0,0,1-4,10.3c-1,1.8-1.9,3.5-2.7,4.8A19,19,0,0,1,30.2,51c-1.9,2-3.9,3.1-5.9,3.1a4.6,4.6,0,0,1-3.1-1,3.4,3.4,0,0,1-1-2.2,3.4,3.4,0,0,1,.6-2,1.7,1.7,0,0,1,1.2-.8,1.3,1.3,0,0,1,1,.3.9.9,0,0,1,.4.7,3.1,3.1,0,0,1-.5,1.1,3,3,0,0,0-.4,1.4,1.6,1.6,0,0,0,.3.9,1.1,1.1,0,0,0,1,.4,3.4,3.4,0,0,0,1.8-.8,8.1,8.1,0,0,0,2-2.1c2.4-3.5,5.6-10.5,9.6-20.9Z"/>
    </g>
  </g>
</svg>
